<svg xmlns="http://www.w3.org/2000/svg" width="24.799" height="28.108" viewBox="0 0 24.799 28.108"><defs><style>.a{fill:#fff;}</style></defs><g transform="translate(0 0)"><path class="a" d="M169.975,145.581a1.648,1.648,0,1,0-2.33,2.33l10.964,10.963a1.647,1.647,0,0,0,2.329-2.329Z" transform="translate(-156.951 -144.875)"/><path class="a" d="M92.4,224.319a17.7,17.7,0,0,1-3.9,7.908l5.965,5.965a17.643,17.643,0,0,1,7.87-3.943l.414-.083L92.481,223.9Z" transform="translate(-82.6 -219.354)"/><path class="a" d="M-14.064,397.989l-4.076,4.076a2.47,2.47,0,0,0,0,3.494l2.329,2.329a2.47,2.47,0,0,0,3.494,0l4.076-4.076Zm.582,6.405a.823.823,0,0,1-1.164,0,.823.823,0,0,1,0-1.164l1.164-1.164a.823.823,0,0,1,1.164,0,.823.823,0,0,1,0,1.164Z" transform="translate(18.864 -383.881)"/><path class="a" d="M149.119,487.908l-.832-.833a15.591,15.591,0,0,0-1.326,1l.994,1a.822.822,0,0,1,0,1.164l-1.139,1.139-1.673-1.621-2.329,2.329,3.736,3.62a1.647,1.647,0,0,0,2.328-2.331l-.879-.852,1.12-1.12A2.468,2.468,0,0,0,149.119,487.908Z" transform="translate(-133.937 -468.076)"/><path class="a" d="M282.864,141.823v1.647a.823.823,0,0,0,1.647,0v-1.647a.823.823,0,0,0-1.647,0Z" transform="translate(-266.3 -141)"/><path class="a" d="M375.334,261h-1.647a.823.823,0,0,0,0,1.647h1.647a.823.823,0,0,0,0-1.647Z" transform="translate(-351.359 -254.412)"/><path class="a" d="M344.269,174.052l1.647-1.647a.823.823,0,0,0-1.164-1.164l-1.647,1.647a.823.823,0,1,0,1.164,1.164Z" transform="translate(-323.005 -169.353)"/></g></svg>