<svg xmlns="http://www.w3.org/2000/svg" width="22.999" height="27.668" viewBox="0 0 22.999 27.668"><defs><style>.a{fill:#fff;}</style></defs><g transform="translate(0 0)"><g transform="translate(0)"><path class="a" d="M61.881,0H46.6a1.976,1.976,0,0,0-1.973,1.973v1.26h-1.8a1.976,1.976,0,0,0-1.973,1.973V25.694a1.976,1.976,0,0,0,1.973,1.973H58.112a1.976,1.976,0,0,0,1.973-1.973v-1.26h1.8a1.976,1.976,0,0,0,1.973-1.973V1.973A1.976,1.976,0,0,0,61.881,0ZM58.507,25.694a.4.4,0,0,1-.395.395H42.829a.4.4,0,0,1-.395-.395V5.207a.4.4,0,0,1,.395-.395h1.8V22.461A1.976,1.976,0,0,0,46.6,24.434H58.507v1.26Zm3.769-3.233a.4.4,0,0,1-.395.395H46.6a.4.4,0,0,1-.395-.395V1.973a.4.4,0,0,1,.395-.395H61.881a.4.4,0,0,1,.395.395V22.461Z" transform="translate(-40.856)"/><path class="a" d="M172.337,85.786H160.761a.789.789,0,1,0,0,1.579h11.576a.789.789,0,0,0,0-1.579Z" transform="translate(-153.165 -80.884)"/><path class="a" d="M172.337,151.529H160.761a.789.789,0,1,0,0,1.579h11.576a.789.789,0,0,0,0-1.579Z" transform="translate(-153.165 -142.87)"/><path class="a" d="M172.337,217.27H160.761a.789.789,0,1,0,0,1.579h11.576a.789.789,0,0,0,0-1.579Z" transform="translate(-153.165 -204.854)"/><path class="a" d="M172.337,283.014H160.761a.789.789,0,1,0,0,1.579h11.576a.789.789,0,0,0,0-1.579Z" transform="translate(-153.165 -266.842)"/></g></g></svg>